<svg width="113" height="30" xmlns="http://www.w3.org/2000/svg" xmlns:xlink="http://www.w3.org/1999/xlink" overflow="hidden"><defs><clipPath id="clip0"><rect x="529" y="494" width="113" height="30"/></clipPath><clipPath id="clip1"><rect x="530" y="495" width="112" height="28"/></clipPath><clipPath id="clip2"><rect x="530" y="495" width="112" height="28"/></clipPath><clipPath id="clip3"><rect x="530" y="488" width="120" height="43"/></clipPath></defs><g clip-path="url(#clip0)" transform="translate(-529 -494)"><g clip-path="url(#clip1)"><g clip-path="url(#clip2)"><g clip-path="url(#clip3)"><path d="M39.7362 33.4205C39.7362 32.9469 39.9205 32.8942 41.1836 32.8942L42.6309 32.8942 42.6309 29.0522C42.6309 25.2365 42.6309 25.2365 43.2362 25.3154 43.7888 25.3944 43.8151 25.4733 43.8941 29.1575L43.973 32.8942 45.2625 32.8942C46.394 32.8942 46.5782 32.9732 46.5782 33.4205 46.5782 33.9205 46.394 33.9469 43.1572 33.9469 39.9205 33.9469 39.7362 33.9205 39.7362 33.4205Z" fill="#000000" fill-rule="nonzero" fill-opacity="1" transform="matrix(1.0216 0 0 -1 530.093 530.996)"/><path d="M81.0514 33.4205C81.0514 32.9469 81.2356 32.8942 82.4988 32.8942L83.9461 32.8942 83.9461 29.0522C83.9461 25.2365 83.9461 25.2365 84.5514 25.3154 85.104 25.3944 85.1303 25.4733 85.2092 29.1575L85.2882 32.8942 86.5776 32.8942C87.7092 32.8942 87.8934 32.9732 87.8934 33.4205 87.8934 33.9205 87.7092 33.9469 84.4724 33.9469 81.2356 33.9469 81.0514 33.9205 81.0514 33.4205Z" fill="#000000" fill-rule="nonzero" fill-opacity="1" transform="matrix(1.0216 0 0 -1 530.093 530.996)"/><path d="M101.841 29.6048C101.841 25.5259 101.867 25.2628 102.341 25.2628 102.788 25.2628 102.841 25.4996 102.92 27.4733 103.025 29.8153 103.498 30.789 104.498 30.789 105.498 30.789 105.788 30.0785 105.788 27.6048L105.788 25.2628 106.472 25.2628 107.156 25.2628 107.051 28.0259C106.946 31.2627 106.709 31.71 104.919 31.6837 104.314 31.6837 103.604 31.6048 103.367 31.4732 102.946 31.289 102.893 31.4206 102.893 32.6048 102.893 33.7626 102.814 33.9469 102.367 33.9469 101.867 33.9469 101.841 33.7626 101.841 29.6048Z" fill="#000000" fill-rule="nonzero" fill-opacity="1" transform="matrix(1.0216 0 0 -1 530.093 530.996)"/><path d="M30.789 32.1048C30.4206 31.8153 30.2627 31.5785 30.4206 31.5785 30.789 31.5785 31.7364 32.289 31.5785 32.4469 31.4995 32.5258 31.1574 32.3679 30.789 32.1048Z" fill="#000000" fill-rule="nonzero" fill-opacity="1" transform="matrix(1.0216 0 0 -1 530.093 530.996)"/><path d="M27.1049 31.3416C26.6838 30.5259 26.7628 30.2101 28.1575 27.8943 28.8943 26.6838 29.3943 25.6049 29.289 25.4996 29.1575 25.3944 28.789 25.2628 28.4206 25.1838 28.0522 25.1312 28.3943 25.0523 29.1838 25.0259 30.3943 24.9996 30.5522 24.947 30.2627 24.6049 30.0785 24.3681 30.0522 24.2102 30.2101 24.2102 30.789 24.2102 31.5785 22.3418 31.5785 20.9471 31.5785 18.6576 33.1837 17.2892 35.2363 17.8945 38.1573 18.7366 38.2889 21.947 35.4731 23.4207 34.3679 23.9996 33.9469 24.4996 32.0785 27.4996 30.9206 29.3943 29.7627 31.1311 29.5522 31.3943 28.9732 32.0258 27.4733 31.9995 27.1049 31.3416ZM28.868 31.3679C29.0259 31.2627 30.289 29.4206 31.6311 27.2627 33.6574 23.9996 34.2363 23.2891 34.9205 23.0523 37.0784 22.3155 37.6573 20.2892 36.1047 18.9208 35.0258 17.9471 33.9995 17.9208 32.8942 18.8681 32.1311 19.4997 32.0785 19.6576 32.1574 20.8944 32.2627 22.1839 32.1837 22.3418 29.8153 26.1838 28.4733 28.3417 27.368 30.2627 27.368 30.4206 27.368 30.7627 28.0785 31.5785 28.368 31.5785 28.4733 31.5785 28.6838 31.4732 28.868 31.3679Z" fill="#000000" fill-rule="nonzero" fill-opacity="1" transform="matrix(1.0216 0 0 -1 530.093 530.996)"/><path d="M31.3153 25.2628C31.3153 25.1049 31.7364 24.3154 32.2364 23.526 32.9732 22.3944 33.1048 21.9734 32.8942 21.5786 32.4732 20.8155 32.5785 20.0523 33.1574 19.4734 34.2363 18.3945 36.3152 19.1576 36.3152 20.6576 36.3152 21.4997 35.4468 22.3681 34.6047 22.3681 34.1047 22.3681 33.71 22.7365 32.8942 23.947 31.8943 25.4207 31.3153 25.8943 31.3153 25.2628Z" fill="#000000" fill-rule="nonzero" fill-opacity="1" transform="matrix(1.0216 0 0 -1 530.093 530.996)"/><path d="M48.4203 31.1311C47.0782 29.9206 46.894 27.3154 48.0519 26.0259 49.1308 24.8154 51.6045 24.9207 52.6308 26.2364 53.315 27.1312 53.2887 27.368 52.4992 27.368 52.1308 27.368 51.7361 27.1575 51.5782 26.8417 51.394 26.4733 51.0255 26.3154 50.4466 26.3154 49.394 26.3154 49.0519 26.5522 48.7098 27.447L48.4203 28.1575 50.8413 28.1575 53.236 28.1575 53.0781 29.1048C52.6571 31.6574 50.1835 32.71 48.4203 31.1311ZM51.315 30.2627C52.1571 29.4206 51.9466 29.2101 50.2624 29.2101 48.5782 29.2101 48.3414 29.4469 49.1308 30.3153 49.6835 30.9469 50.6571 30.9206 51.315 30.2627Z" fill="#000000" fill-rule="nonzero" fill-opacity="1" transform="matrix(1.0216 0 0 -1 530.093 530.996)"/><path d="M55.8413 31.4206C55.5255 31.2101 55.2623 31.1574 55.2623 31.289 55.2623 31.4469 55.0255 31.5785 54.736 31.5785 54.236 31.5785 54.2097 31.3943 54.2097 28.4206 54.2097 25.4996 54.236 25.2628 54.7097 25.2628 55.1571 25.2628 55.2097 25.4996 55.2886 27.4733 55.3939 29.8153 55.8676 30.789 56.8676 30.789 57.6307 30.789 57.8939 29.9469 57.8939 27.5259 57.8939 25.2891 57.8939 25.2628 58.5518 25.2628 59.2096 25.2628 59.2096 25.2891 59.2096 27.5785 59.2096 29.5785 59.2886 29.9732 59.7359 30.3943 60.1833 30.789 60.3675 30.8153 60.9201 30.5785 61.5517 30.289 61.578 30.1838 61.578 27.7627L61.578 25.2628 62.2622 25.2628 62.9464 25.2628 62.8412 28.0522C62.7622 30.6048 62.6833 30.8943 62.1306 31.3416 61.3938 31.9469 60.3149 31.9732 59.5254 31.4206 58.9991 31.0522 58.8938 31.0522 58.3675 31.4206 58.0518 31.6574 57.4728 31.8416 57.1044 31.8416 56.736 31.8416 56.157 31.6574 55.8413 31.4206Z" fill="#000000" fill-rule="nonzero" fill-opacity="1" transform="matrix(1.0216 0 0 -1 530.093 530.996)"/><path d="M65.8411 31.4206C65.5253 31.2101 65.2622 31.1574 65.2622 31.289 65.2622 31.4469 65.0253 31.5785 64.7359 31.5785 64.2359 31.5785 64.2096 31.3943 64.2096 27.2364 64.2096 23.0786 64.2359 22.8944 64.7359 22.8944 65.2095 22.8944 65.2622 23.0786 65.2622 24.3681 65.2622 25.6312 65.3148 25.8154 65.6306 25.5522 66.1569 25.1049 67.499 25.1049 68.2884 25.5259 69.6042 26.2364 70.1568 28.7101 69.3411 30.2627 68.5779 31.7627 67.0516 32.2627 65.8411 31.4206ZM67.999 30.2101C68.2358 29.8943 68.42 29.1311 68.42 28.5522 68.42 27.1575 67.8148 26.3154 66.8411 26.3154 65.8937 26.3154 65.2622 27.1575 65.2622 28.4469 65.2622 30.3416 67.0779 31.5258 67.999 30.2101Z" fill="#000000" fill-rule="nonzero" fill-opacity="1" transform="matrix(1.0216 0 0 -1 530.093 530.996)"/><path d="M71.841 31.1311C70.4989 29.9206 70.3147 27.3154 71.4726 26.0259 72.5515 24.8154 75.0252 24.9207 76.0515 26.2364 76.7357 27.1312 76.7094 27.368 75.9199 27.368 75.5515 27.368 75.1568 27.1575 74.9989 26.8417 74.8147 26.4733 74.4462 26.3154 73.8673 26.3154 72.8147 26.3154 72.4726 26.5522 72.1305 27.447L71.841 28.1575 74.262 28.1575 76.6567 28.1575 76.4988 29.1048C76.0778 31.6574 73.6042 32.71 71.841 31.1311ZM74.7357 30.2627C75.5778 29.4206 75.3673 29.2101 73.6831 29.2101 71.9989 29.2101 71.7621 29.4469 72.5515 30.3153 73.1042 30.9469 74.0778 30.9206 74.7357 30.2627Z" fill="#000000" fill-rule="nonzero" fill-opacity="1" transform="matrix(1.0216 0 0 -1 530.093 530.996)"/><path d="M79.262 31.6048C79.0778 31.4995 78.6304 31.4469 78.262 31.5258L77.6304 31.6311 77.6304 28.4469C77.6304 25.4996 77.6567 25.2628 78.1304 25.2628 78.5514 25.2628 78.6304 25.5259 78.7357 27.4733 78.8672 29.9206 79.2093 30.6311 80.183 30.4469 80.604 30.368 80.8146 30.4995 80.9462 30.868 81.183 31.6574 80.1041 32.1574 79.262 31.6048Z" fill="#000000" fill-rule="nonzero" fill-opacity="1" transform="matrix(1.0216 0 0 -1 530.093 530.996)"/><path d="M89.7355 31.1311C88.3934 29.9206 88.2092 27.3154 89.3671 26.0259 90.446 24.8154 92.9197 24.9207 93.946 26.2364 94.6301 27.1312 94.6038 27.368 93.8144 27.368 93.446 27.368 93.0512 27.1575 92.8933 26.8417 92.7091 26.4733 92.3407 26.3154 91.7618 26.3154 90.7092 26.3154 90.3671 26.5522 90.025 27.447L89.7355 28.1575 92.1565 28.1575 94.5512 28.1575 94.3933 29.1048C93.9723 31.6574 91.4986 32.71 89.7355 31.1311ZM92.6302 30.2627C93.4723 29.4206 93.2617 29.2101 91.5776 29.2101 89.8934 29.2101 89.6565 29.4469 90.446 30.3153 90.9986 30.9469 91.9723 30.9206 92.6302 30.2627Z" fill="#000000" fill-rule="nonzero" fill-opacity="1" transform="matrix(1.0216 0 0 -1 530.093 530.996)"/><path d="M96.867 31.4732C95.9459 30.9469 95.5512 30.0522 95.5249 28.368 95.5249 27.1838 95.6565 26.7364 96.1301 26.1838 97.5512 24.5523 100.288 25.0259 100.893 27.0522 101.051 27.5522 100.998 27.6312 100.446 27.6312 100.025 27.6312 99.709 27.4206 99.5248 26.9733 99.288 26.447 99.0248 26.3154 98.288 26.3154 97.4459 26.3154 97.288 26.4207 96.9459 27.2627 95.9722 29.6048 97.9985 31.9469 99.4196 30.1311 99.9195 29.5259 100.788 29.4469 100.788 29.9995 100.788 31.4469 98.4196 32.3416 96.867 31.4732Z" fill="#000000" fill-rule="nonzero" fill-opacity="1" transform="matrix(1.0216 0 0 -1 530.093 530.996)"/><path d="M19.0523 30.8153C18.5787 30.5259 18.026 30.0259 17.7892 29.6838 16.6313 28.0785 16.0524 27.0259 16.184 26.8943 16.2629 26.8154 16.3155 26.9206 16.3155 27.1312 16.3155 27.4206 16.3682 27.4206 16.5787 27.1049 16.9208 26.5785 16.9208 25.1838 16.5787 25.3944 16.4471 25.4733 16.3155 25.8154 16.3155 26.1049 16.3155 26.4207 16.2366 26.6049 16.1577 26.4996 15.8156 26.1838 16.3155 25.1312 16.8945 24.868 17.2366 24.7365 17.4997 24.4207 17.4997 24.2102 17.4997 23.9733 18.105 23.5523 18.9471 23.1839 20.0786 22.7102 20.6839 22.6049 21.7365 22.7102 22.9733 22.8418 25.1575 23.6839 24.9733 23.9733 24.8154 24.1838 25.7365 26.2101 26.1575 26.5522 26.6838 26.9996 26.7101 27.8943 26.1838 28.5785 25.8417 29.0259 25.8417 28.9996 26.1049 28.2364 26.368 27.5785 26.368 27.3154 26.1049 27.0522 25.868 26.8154 25.7891 26.8417 25.7891 27.2891 25.7891 28.3417 25.2101 29.4469 24.2891 30.1574 23.7628 30.5522 23.4207 30.7364 23.5523 30.5522 23.7102 30.289 23.5523 30.2364 22.9207 30.3943 22.447 30.4995 21.947 30.4469 21.7628 30.3153 21.3418 29.9732 19.4734 29.789 19.4734 30.0522 19.4734 30.1838 19.2366 30.1574 18.9208 29.9995 18.0787 29.5259 18.026 29.8943 18.8418 30.4469 19.2629 30.7101 20.2365 30.9995 21.0523 31.0785L22.4997 31.2364 21.1839 31.2627C20.2892 31.289 19.605 31.1574 19.0523 30.8153ZM19.6576 28.6048C19.2629 28.2627 18.7102 27.4206 18.4471 26.7101L17.9471 25.4207 17.7892 26.2364C17.5524 27.2891 17.9471 28.0259 19.026 28.6838 20.1576 29.3943 20.5523 29.3153 19.6576 28.6048ZM24.6575 27.7364C24.868 27.1838 24.3154 26.6312 23.9207 27.0259 23.5786 27.368 23.7891 28.1575 24.2102 28.1575 24.3681 28.1575 24.5523 27.9733 24.6575 27.7364Z" fill="#000000" fill-rule="nonzero" fill-opacity="1" transform="matrix(1.0216 0 0 -1 530.093 530.996)"/><path d="M31.1837 30.7627C30.9469 30.3943 31.1311 30.2364 31.5522 30.4995 31.7627 30.6574 31.789 30.789 31.6311 30.8943 31.4732 30.9732 31.2627 30.9206 31.1837 30.7627Z" fill="#000000" fill-rule="nonzero" fill-opacity="1" transform="matrix(1.0216 0 0 -1 530.093 530.996)"/><path d="M32.2364 29.7364C31.789 29.4469 31.6311 29.2101 31.8416 29.2101 32.289 29.2364 33.3153 29.9469 33.1311 30.1048 33.0521 30.1838 32.6574 29.9995 32.2364 29.7364Z" fill="#000000" fill-rule="nonzero" fill-opacity="1" transform="matrix(1.0216 0 0 -1 530.093 530.996)"/><path d="M33.8942 27.4733C33.4732 27.2627 33.1574 27.0259 33.1574 26.9733 33.1574 26.6838 33.6574 26.868 34.2363 27.368 34.9995 27.9733 34.8679 28.0259 33.8942 27.4733Z" fill="#000000" fill-rule="nonzero" fill-opacity="1" transform="matrix(1.0216 0 0 -1 530.093 530.996)"/><path d="M9.60512 26.2364C8.73671 25.7891 8.10514 25.6838 5.99991 25.6575 2.89469 25.6575 2.52628 25.4207 2.49996 23.4207L2.49996 22.0786 4.73677 20.6576 6.97358 19.2629 8.49987 19.4734C9.9209 19.6839 12.8419 21.1313 14.2629 22.3155 14.6577 22.6312 14.7893 22.6312 15.4471 22.1576 15.8419 21.8944 16.4471 21.5523 16.7892 21.4734 17.2892 21.3155 17.3682 21.0786 17.3945 19.9208 17.3945 19.1576 17.5524 18.0787 17.7629 17.4997L18.105 16.4471 18.1313 17.4734C18.1576 18.4734 18.1576 18.4734 19.026 18.2892 20.8418 17.9208 22.7102 17.8418 23.2891 18.1576 23.6049 18.3418 24.1049 18.4208 24.3681 18.3681 24.7628 18.2892 24.8417 18.0787 24.7891 17.2366L24.7365 16.184 25.1312 17.2366C25.5786 18.4471 25.6312 19.6313 25.2628 19.8681 24.6312 20.2629 25.0259 20.9997 26.1312 21.4207 26.7364 21.6576 27.8417 22.4207 28.5522 23.1049 29.289 23.7628 29.5785 24.1312 29.2101 23.8681 28.8417 23.6049 28.3417 23.3418 28.1048 23.2365 27.8417 23.1575 27.6312 22.947 27.6312 22.7365 27.6312 22.3155 26.7628 21.8155 25.6575 21.5786 25.0523 21.4734 24.8417 21.2628 24.7891 20.7102 24.6838 19.7892 24.0523 19.526 23.526 20.1576 23.2891 20.4471 23.2102 20.4997 23.2891 20.3155 23.3944 20.1313 23.3944 19.5523 23.3154 19.0523 23.1575 18.2366 23.0523 18.1576 22.2365 18.1576 21.4997 18.1576 21.3155 18.2629 21.3155 18.6576 21.3155 18.9471 21.2102 19.2629 21.0523 19.3418 20.9207 19.4208 20.7892 19.7365 20.7892 20.026 20.7892 20.8155 19.9997 20.9734 19.4734 20.2629 18.8681 19.4471 18.0787 19.7102 18.3155 20.6313 18.4471 21.2365 18.3681 21.3155 17.3155 21.5786 15.7103 21.9997 15.0787 22.4997 15.5261 23.026 15.8156 23.3681 15.7892 23.4207 15.4735 23.2891 15.1314 23.1575 13.7103 23.8944 12.7103 24.7365 12.4735 24.9207 12.3682 24.9207 12.3682 24.7628 12.3682 24.6049 12.7893 24.2628 13.3156 23.9996 14.0524 23.6312 14.184 23.447 13.8945 23.2365 13.1051 22.5786 12.684 22.7628 11.6314 24.3417 10.7104 25.7101 10.6314 25.947 10.9998 26.1049 11.8682 26.447 12.8945 26.3154 13.4209 25.7891 13.7103 25.4996 14.1051 25.2628 14.2893 25.2628 14.4472 25.2628 14.2103 25.6312 13.7366 26.0522 12.684 27.0259 11.184 27.1049 9.60512 26.2364ZM10.3683 24.5786C10.4998 24.2365 10.4209 24.1838 9.94722 24.3154 9.60512 24.3944 9.13144 24.4733 8.8946 24.4733 8.63145 24.4733 8.42093 24.6049 8.42093 24.7365 8.42093 25.1838 10.1841 25.0523 10.3683 24.5786ZM17.8155 19.8155C17.7366 19.5523 17.6839 19.7629 17.6839 20.2629 17.6839 20.7628 17.7366 20.9734 17.8155 20.7365 17.8682 20.4734 17.8682 20.0523 17.8155 19.8155ZM20.6313 19.6839C21.2102 18.526 21.1576 18.105 20.4734 18.2103 20.026 18.2629 19.8418 18.4997 19.7892 19.026 19.7102 19.7629 19.8681 20.526 20.105 20.526 20.1576 20.526 20.4207 20.1576 20.6313 19.6839ZM19.3418 19.2102C19.4471 19.0523 19.2102 18.9471 18.8418 18.9471 18.4734 18.9471 18.1576 19.0787 18.1576 19.2102 18.1576 19.3681 18.3945 19.4734 18.6576 19.4734 18.9471 19.4734 19.2629 19.3681 19.3418 19.2102ZM24.9996 19.2102C24.9996 19.0787 24.7628 18.9471 24.4996 18.9471 24.2102 18.9471 23.8944 19.0787 23.8154 19.2102 23.7102 19.3681 23.947 19.4734 24.3154 19.4734 24.6838 19.4734 24.9996 19.3681 24.9996 19.2102Z" fill="#000000" fill-rule="nonzero" fill-opacity="1" transform="matrix(1.0216 0 0 -1 530.093 530.996)"/><path d="M34.21 26.0522C33.9995 25.9207 33.8942 25.7628 33.9732 25.6838 34.0258 25.6049 34.2626 25.6575 34.4732 25.7891 34.6837 25.9207 34.7889 26.0786 34.71 26.1575 34.6574 26.2364 34.4205 26.1838 34.21 26.0522Z" fill="#000000" fill-rule="nonzero" fill-opacity="1" transform="matrix(1.0216 0 0 -1 530.093 530.996)"/><path d="M34.9995 24.868C34.5784 24.3681 34.9995 24.3681 35.6837 24.868 36.1047 25.1838 36.1047 25.2365 35.7626 25.2628 35.5258 25.2628 35.1837 25.0786 34.9995 24.868Z" fill="#000000" fill-rule="nonzero" fill-opacity="1" transform="matrix(1.0216 0 0 -1 530.093 530.996)"/><path d="M15.4208 24.7102C15.5787 24.4996 15.7629 24.1575 15.8419 23.9733 15.9471 23.6312 15.9734 23.6312 16.105 23.9733 16.2103 24.2102 16.0524 24.5259 15.7103 24.7365 15.2103 25.0259 15.184 25.0259 15.4208 24.7102Z" fill="#000000" fill-rule="nonzero" fill-opacity="1" transform="matrix(1.0216 0 0 -1 530.093 530.996)"/><path d="M26.868 24.4996C26.6575 24.3681 26.6312 24.2102 26.7891 24.1049 26.9206 24.026 27.1049 24.1312 27.2101 24.3417 27.368 24.7891 27.368 24.8154 26.868 24.4996Z" fill="#000000" fill-rule="nonzero" fill-opacity="1" transform="matrix(1.0216 0 0 -1 530.093 530.996)"/><path d="M44.3414 19.8944C44.2625 19.6576 44.1572 19.2892 44.0783 19.0787 43.9993 18.7892 43.5257 18.6839 42.1046 18.6839 40.4468 18.6839 40.2626 18.6313 40.2626 18.1576 40.2626 17.6839 40.4468 17.6313 41.8678 17.6313L43.4467 17.6313 42.973 16.7892C42.7099 16.3155 41.9467 15.3945 41.2889 14.7103 40.1047 13.5524 40.0783 13.4998 40.5783 13.184 41.052 12.8945 41.2099 12.9472 41.8678 13.5787L42.6309 14.3156 42.6309 11.7367C42.6309 9.2367 42.6309 9.18407 43.2362 9.26302 43.7099 9.31565 43.8414 9.52617 43.8941 10.4735L43.973 11.5788 46.0783 11.5788C47.9466 11.5788 48.1835 11.5261 48.1045 11.1314 48.0519 10.8683 47.7361 10.6314 47.4203 10.5788 46.9993 10.4998 46.8414 10.3683 46.9467 10.0788 47.0256 9.86827 47.1046 9.5788 47.1046 9.44723 47.1046 9.10513 48.2624 9.15776 48.7361 9.52617 49.1045 9.81564 49.1835 10.4998 49.2624 13.2366L49.3414 16.5787 46.7625 16.5787C44.2625 16.5787 44.2099 16.605 44.473 17.105 44.7362 17.5787 45.0256 17.6313 47.894 17.6313 50.8677 17.6313 51.0519 17.6576 51.0519 18.1576 51.0519 18.6576 50.8677 18.6839 48.1045 18.6839 45.1835 18.6839 45.1835 18.6839 45.6572 19.2102 46.2098 19.8155 46.1835 19.8944 45.2098 20.1313 44.6572 20.2629 44.4467 20.2102 44.3414 19.8944ZM48.1572 15.1314C48.1572 14.8156 47.7361 14.7366 46.0519 14.7366 44.3678 14.7366 43.9467 14.8156 43.9467 15.1314 43.9467 15.4471 44.3678 15.5261 46.0519 15.5261 47.7361 15.5261 48.1572 15.4471 48.1572 15.1314ZM48.1572 13.1577C48.1572 12.684 47.973 12.6314 46.0519 12.6314 44.1309 12.6314 43.9467 12.684 43.9467 13.1577 43.9467 13.6314 44.1309 13.684 46.0519 13.684 47.973 13.684 48.1572 13.6314 48.1572 13.1577Z" fill="#000000" fill-rule="nonzero" fill-opacity="1" transform="matrix(1.0216 0 0 -1 530.093 530.996)"/><path d="M68.8674 19.4734C68.999 18.9734 68.8674 18.9471 67.1569 18.9471L65.3148 18.9471 65.2095 15.7366C65.1306 13.1051 64.999 12.263 64.5253 11.2104 63.9727 9.99985 63.9727 9.9209 64.3938 9.5788 65.078 9.0525 65.1569 9.10513 65.6569 10.3419 65.999 11.1051 66.1832 12.4209 66.2622 14.684L66.3674 17.8945 67.2621 17.8945C67.9727 17.8945 68.1569 17.7892 68.1569 17.3945 68.1569 17.0261 67.9463 16.8419 67.4464 16.7892 66.4727 16.684 66.4727 15.9471 67.4464 15.8419 68.0516 15.7629 68.1569 15.6313 68.1569 14.9735L68.1569 14.2103 70.3937 14.2103 72.6305 14.2103 72.6305 15.1314C72.6305 16.0261 72.6568 16.0261 73.6305 15.9734 74.341 15.9471 74.6041 16.0261 74.6041 16.3155 74.6041 16.5787 74.2884 16.7366 73.6305 16.7892 72.841 16.8682 72.6305 16.9734 72.6305 17.3945 72.6305 17.7892 72.8147 17.8945 73.5515 17.8945 74.2884 17.8945 74.4726 17.9997 74.4726 18.4208 74.4726 18.8945 74.2884 18.9471 72.3936 18.9471 70.5516 18.9471 70.3147 18.9997 70.1832 19.4734 70.1042 19.8155 69.8147 19.9997 69.3937 19.9997 68.8674 19.9997 68.7621 19.8944 68.8674 19.4734ZM71.3147 17.3682C71.3147 16.9208 71.1305 16.8419 70.2621 16.8419 69.5253 16.8419 69.2095 16.9471 69.2095 17.2103 69.2095 17.4208 68.999 17.6576 68.7621 17.7103 68.499 17.7892 68.9726 17.8418 69.8147 17.8682 71.1568 17.8945 71.3147 17.8418 71.3147 17.3682ZM71.3147 15.5261C71.3147 15.0787 71.1305 14.9998 70.2621 14.9998 69.3937 14.9998 69.2095 15.0787 69.2095 15.5261 69.2095 15.9734 69.3937 16.0524 70.2621 16.0524 71.1305 16.0524 71.3147 15.9734 71.3147 15.5261Z" fill="#000000" fill-rule="nonzero" fill-opacity="1" transform="matrix(1.0216 0 0 -1 530.093 530.996)"/><path d="M84.4461 19.7629C84.4461 19.6839 84.4461 18.2366 84.4724 16.5524L84.4987 13.4998 83.4987 13.3156C82.9461 13.2366 82.183 13.1577 81.7882 13.1577 81.183 13.1577 81.0514 13.0524 81.0514 12.4735 81.0514 11.9735 81.1567 11.8419 81.5251 11.9472 81.7619 12.0261 82.5251 12.1577 83.2356 12.263L84.4724 12.4209 84.4724 10.684C84.4724 9.13144 84.525 8.94723 84.9987 8.94723 85.4724 8.94723 85.525 9.13144 85.525 10.7893L85.525 12.6314 86.3145 12.6314C86.9724 12.6314 87.104 12.7367 87.104 13.2893 87.104 13.8682 87.025 13.9208 86.2882 13.763L85.4724 13.6051 85.5777 16.6576C85.6566 19.6313 85.6566 19.7102 85.0777 19.8155 84.7356 19.8681 84.4724 19.8418 84.4461 19.7629Z" fill="#000000" fill-rule="nonzero" fill-opacity="1" transform="matrix(1.0216 0 0 -1 530.093 530.996)"/><path d="M89.7355 18.8155C89.7355 17.6576 89.7092 17.6313 88.9197 17.6313 88.2355 17.6313 88.1302 17.5524 88.2092 17.0524 88.2618 16.5524 88.4197 16.4734 89.025 16.5261 89.7092 16.605 89.7355 16.5787 89.7355 15.4471 89.7355 14.3682 89.6829 14.2629 88.946 14.1314 88.3934 13.9998 88.1566 13.8156 88.1566 13.4472 88.1566 12.763 88.5513 12.5524 89.2092 12.8945 89.7092 13.1577 89.7355 13.1051 89.7355 11.8419 89.7355 10.6051 89.6829 10.5262 89.0776 10.5262 88.3671 10.5262 88.2355 10.0788 88.7618 9.42091 89.025 9.0525 89.2092 9.02618 89.9986 9.28933L90.9197 9.60512 90.9986 11.6577C91.0513 13.0261 91.1828 13.684 91.3934 13.684 91.9986 13.684 92.3933 14.1314 92.2091 14.5787 92.1039 14.8682 91.867 14.9735 91.5513 14.8682 91.1302 14.7366 91.0513 14.8419 91.0513 15.6577 91.0513 16.4208 91.1565 16.5787 91.5249 16.5261 91.8144 16.4734 91.9986 16.6313 92.0512 17.0524 92.1302 17.4997 91.9986 17.6313 91.5513 17.6313 91.0249 17.6313 90.9986 17.7366 91.1039 18.8155 91.2355 19.9734 91.2355 19.9997 90.4986 19.9997 89.7618 19.9997 89.7355 19.9471 89.7355 18.8155Z" fill="#000000" fill-rule="nonzero" fill-opacity="1" transform="matrix(1.0216 0 0 -1 530.093 530.996)"/><path d="M94.9196 19.2102 95.0775 18.4208 93.7091 18.4208C92.5512 18.4208 92.367 18.3418 92.367 17.8945 92.367 17.4471 92.5512 17.3682 93.6828 17.3682 94.9723 17.3682 94.9986 17.3418 94.9986 16.5787 94.9986 15.8156 94.9723 15.7892 93.6828 15.7892 92.5512 15.7892 92.367 15.7103 92.367 15.2629 92.367 14.9735 92.5249 14.7366 92.7354 14.7366 92.946 14.7366 93.2617 14.2893 93.4196 13.763 93.6039 13.2103 93.8933 12.4998 94.1038 12.2103 94.3933 11.7104 94.3933 11.5788 93.9986 11.2104 93.7354 10.9998 93.0775 10.6314 92.5249 10.3946L91.4986 9.97353 92.0512 9.42091 92.5776 8.86829 93.9723 9.81564 95.367 10.7367 96.0775 10.2367C96.4985 9.94722 97.2091 9.55249 97.7091 9.34196 98.5775 8.97355 98.6301 8.99986 98.9196 9.63143 99.0775 9.99985 99.209 10.3156 99.209 10.3683 99.209 10.4209 98.709 10.6051 98.1038 10.763 96.4459 11.184 96.1038 11.4472 96.5249 12.0261 97.0249 12.763 98.1564 15.105 98.1564 15.4735 98.1564 15.6577 97.7617 15.7892 97.1038 15.7892 96.1038 15.7892 96.0512 15.8419 96.0512 16.5787 96.0512 17.3682 96.0775 17.3682 97.4985 17.3682 98.7617 17.3682 98.9459 17.4208 98.9459 17.8945 98.9459 18.3681 98.7617 18.4208 97.4722 18.4208L95.9986 18.4208 96.1564 19.2102C96.288 19.9471 96.2354 19.9997 95.5249 19.9997 94.8144 19.9997 94.7617 19.9471 94.9196 19.2102ZM96.5775 14.4472C96.5775 14.0787 95.5512 12.6314 95.288 12.6314 95.0249 12.6314 94.4723 13.8156 94.4723 14.3419 94.4723 14.6314 94.788 14.7366 95.5249 14.7366 96.1038 14.7366 96.5775 14.605 96.5775 14.4472Z" fill="#000000" fill-rule="nonzero" fill-opacity="1" transform="matrix(1.0216 0 0 -1 530.093 530.996)"/><path d="M52.9203 19.3944C52.5255 18.8945 54.4992 17.2366 54.9729 17.7103 55.4728 18.2103 55.315 18.605 54.3676 19.1839 53.3413 19.8418 53.315 19.8418 52.9203 19.3944Z" fill="#000000" fill-rule="nonzero" fill-opacity="1" transform="matrix(1.0216 0 0 -1 530.093 530.996)"/><path d="M78.3672 19.2366C76.8146 18.8681 76.6567 18.7629 76.8936 18.3418 77.0778 17.9997 77.3409 17.8945 77.7883 17.9997 78.3409 18.1576 78.4199 18.0787 78.4199 17.3682 78.4199 16.6313 78.3672 16.5787 77.3673 16.5787 76.4988 16.5787 76.3146 16.4998 76.3146 16.0524 76.3146 15.6313 76.4988 15.5261 77.2357 15.5261 77.7357 15.5261 78.1567 15.4471 78.1567 15.3682 78.1567 15.105 77.0515 13.3419 76.5252 12.7103 76.1041 12.263 76.0515 12.0525 76.2883 11.6051 76.4725 11.2893 76.6567 11.0525 76.7094 11.0525 76.7883 11.0525 77.183 11.684 77.6304 12.4472L78.4199 13.8156 78.4199 11.5261C78.4199 9.3946 78.4725 9.21039 78.9462 9.21039 79.4462 9.21039 79.4725 9.3946 79.4725 11.6577 79.4725 14.0261 79.4988 14.0787 79.9462 13.4735 80.3672 12.9209 80.4725 12.8945 80.7619 13.263 81.0251 13.5787 80.9988 13.763 80.6567 14.3156 80.3935 14.684 80.0777 14.9208 79.8409 14.8156 79.6304 14.7366 79.4725 14.8419 79.4725 15.105 79.4725 15.3945 79.7093 15.5261 80.2619 15.5261 80.8672 15.5261 81.0514 15.6313 81.0514 16.0524 81.0514 16.4734 80.8672 16.5787 80.2619 16.5787 79.5251 16.5787 79.4725 16.6576 79.4725 17.4997 79.4725 18.4208 79.6567 18.5524 80.9988 18.4997 81.3935 18.4734 81.4198 18.9997 80.9988 19.4208 80.6304 19.7892 80.604 19.7892 78.3672 19.2366Z" fill="#000000" fill-rule="nonzero" fill-opacity="1" transform="matrix(1.0216 0 0 -1 530.093 530.996)"/><path d="M55.7886 17.2366 55.7886 14.9998 58.8149 14.9998 61.8412 14.9998 61.8412 17.2366 61.8412 19.4734 58.8149 19.4734 55.7886 19.4734 55.7886 17.2366ZM58.157 18.0787C58.157 17.8682 57.8675 17.4471 57.4991 17.105L56.8412 16.4998 56.8412 17.4471C56.8412 18.3155 56.9202 18.4208 57.4991 18.4208 57.8675 18.4208 58.157 18.2629 58.157 18.0787ZM60.7886 17.105C60.7886 16.0787 60.7096 15.7892 60.3675 15.7892 59.9991 15.7892 59.9991 15.8682 60.2622 16.184 60.5517 16.5261 60.4991 16.7103 59.8938 17.3418 59.1307 18.1313 59.2096 18.4208 60.1833 18.4208 60.7359 18.4208 60.7886 18.3155 60.7886 17.105ZM58.9465 15.8419C57.8675 15.7366 57.6833 15.9208 58.3149 16.605L58.8149 17.1576 59.2886 16.5261 59.7886 15.9208 58.9465 15.8419ZM57.236 16.0524C57.3149 15.9208 57.2623 15.7892 57.1307 15.7892 56.9728 15.7892 56.8412 15.9208 56.8412 16.0524 56.8412 16.2103 56.8939 16.3155 56.9465 16.3155 57.0255 16.3155 57.157 16.2103 57.236 16.0524Z" fill="#000000" fill-rule="nonzero" fill-opacity="1" transform="matrix(1.0216 0 0 -1 530.093 530.996)"/><path d="M82.1567 18.3418C81.9461 18.105 81.9988 17.8155 82.3409 17.2629 82.8672 16.4734 82.9461 16.4471 83.604 16.7892 83.9724 16.9997 83.9461 17.1313 83.3935 17.8682 82.7356 18.7629 82.5514 18.8418 82.1567 18.3418Z" fill="#000000" fill-rule="nonzero" fill-opacity="1" transform="matrix(1.0216 0 0 -1 530.093 530.996)"/><path d="M52.3939 16.605C52.1571 16.184 52.2624 15.9998 53.236 15.4208 54.2623 14.8156 54.3676 14.7893 54.6834 15.2103 55.0518 15.684 54.815 15.9734 53.3676 16.7366 52.7097 17.0787 52.6308 17.0524 52.3939 16.605Z" fill="#000000" fill-rule="nonzero" fill-opacity="1" transform="matrix(1.0216 0 0 -1 530.093 530.996)"/><path d="M20.6576 15.8682C20.6576 15.4471 20.7365 15.0787 20.8155 14.9998 21.2628 14.6577 21.3155 13.7103 20.9207 13.3156 20.6839 13.0788 20.605 12.8945 20.7628 12.8945 20.8944 12.8945 21.0786 12.9998 21.1839 13.1314 21.2628 13.2893 21.6313 13.2366 22.0523 12.9998 23.3418 12.3419 25.0259 12.6314 24.9996 13.5524 24.9996 13.684 24.868 13.6051 24.7102 13.3682 24.4207 12.8419 23.1575 12.7367 22.3418 13.1577 21.8681 13.4209 21.5786 14.9998 22.0523 14.9998 22.1576 14.9998 22.2365 15.3682 22.2365 15.7892 22.2365 16.4998 22.1576 16.5787 21.447 16.5787 20.7365 16.5787 20.6313 16.4998 20.6576 15.8682ZM21.8418 15.684C21.8418 15.3156 21.7365 14.9471 21.5786 14.8682 21.447 14.7893 21.3155 14.7893 21.3155 14.9208 21.3155 15.0261 21.2365 15.3945 21.1576 15.7366 21.026 16.1577 21.1049 16.3155 21.4207 16.3155 21.6839 16.3155 21.8418 16.0787 21.8418 15.684Z" fill="#000000" fill-rule="nonzero" fill-opacity="1" transform="matrix(1.0216 0 0 -1 530.093 530.996)"/><path d="M81.9198 15.6313C81.7093 15.5261 81.7619 15.2366 82.1567 14.605 82.604 13.8419 82.7619 13.7366 83.183 13.9472 83.7882 14.2893 83.7882 14.4472 83.183 15.2103 82.683 15.7892 82.4988 15.8419 81.9198 15.6313Z" fill="#000000" fill-rule="nonzero" fill-opacity="1" transform="matrix(1.0216 0 0 -1 530.093 530.996)"/><path d="M18.5524 15.0261C18.6576 14.684 18.5787 14.2629 18.3681 13.9998 18.0524 13.6051 18.0787 13.5787 18.4997 13.9208 18.9997 14.3156 19.105 15.1314 18.6576 15.4208 18.4471 15.5261 18.4208 15.3945 18.5524 15.0261Z" fill="#000000" fill-rule="nonzero" fill-opacity="1" transform="matrix(1.0216 0 0 -1 530.093 530.996)"/><path d="M24.0523 14.8682C23.8681 14.4208 24.1312 13.9472 24.5523 13.9472 24.7628 13.9472 24.7628 14.0261 24.5523 14.2366 24.3944 14.3945 24.3154 14.7103 24.3944 14.8945 24.4733 15.105 24.447 15.2629 24.3681 15.2629 24.2628 15.2629 24.1312 15.0787 24.0523 14.8682Z" fill="#000000" fill-rule="nonzero" fill-opacity="1" transform="matrix(1.0216 0 0 -1 530.093 530.996)"/><path d="M52.8676 12.0788C52.2097 9.97353 52.2097 9.97353 52.736 9.60512 53.0255 9.3946 53.2887 9.26302 53.3413 9.31565 53.3939 9.34196 53.6571 10.3156 53.9466 11.4472 54.3413 12.9735 54.3939 13.5787 54.1834 13.8682 54.0255 14.0524 53.815 14.2103 53.7097 14.2103 53.6308 14.2103 53.236 13.2366 52.8676 12.0788Z" fill="#000000" fill-rule="nonzero" fill-opacity="1" transform="matrix(1.0216 0 0 -1 530.093 530.996)"/><path d="M55.2623 12.4998C55.2623 10.9735 55.2097 10.7893 54.736 10.7893 54.3939 10.7893 54.2097 10.6051 54.2097 10.263 54.2097 9.76301 54.3939 9.7367 58.6833 9.7367 62.6043 9.7367 63.1569 9.78933 63.1569 10.1577 63.1569 10.3946 62.9201 10.6314 62.6043 10.7104 62.1043 10.8419 62.078 11.0261 62.157 12.4735L62.2359 14.0787 58.7623 14.1577 55.2623 14.2366 55.2623 12.4998ZM57.3676 11.9735C57.3676 10.9735 57.2886 10.7893 56.8412 10.7893 56.3939 10.7893 56.3149 10.9735 56.3149 11.9735 56.3149 12.9735 56.3939 13.1577 56.8412 13.1577 57.2886 13.1577 57.3676 12.9735 57.3676 11.9735ZM59.2096 11.9735C59.2096 10.9735 59.1307 10.7893 58.6833 10.7893 58.236 10.7893 58.157 10.9735 58.157 11.9735 58.157 12.9735 58.236 13.1577 58.6833 13.1577 59.1307 13.1577 59.2096 12.9735 59.2096 11.9735ZM61.3149 11.9735C61.3149 10.9735 61.2359 10.7893 60.7886 10.7893 60.3412 10.7893 60.2622 10.9735 60.2622 11.9735 60.2622 12.9735 60.3412 13.1577 60.7886 13.1577 61.2359 13.1577 61.3149 12.9735 61.3149 11.9735Z" fill="#000000" fill-rule="nonzero" fill-opacity="1" transform="matrix(1.0216 0 0 -1 530.093 530.996)"/><path d="M66.8411 13.1577C66.8411 12.8419 67.0253 12.6314 67.3148 12.6314 67.5516 12.6314 68.0779 12.2103 68.499 11.7104L69.2095 10.8156 67.6569 10.4998C66.1306 10.1841 66.1043 10.1577 66.5253 9.60512 66.92 9.07881 67.0253 9.0525 68.0779 9.36828 68.6832 9.55249 69.3937 9.81564 69.6568 9.97353 69.9989 10.1577 70.5516 10.0788 71.5779 9.7367 73.3673 9.10513 74.3673 9.07881 74.5778 9.63143 74.8673 10.3683 74.762 10.4472 73.2884 10.5788 72.4989 10.6577 71.7621 10.7893 71.6568 10.8683 71.5779 10.9735 71.7884 11.3946 72.1568 11.7893 72.5252 12.184 72.9726 12.763 73.1305 13.1051L73.4463 13.684 70.1305 13.684C67.0253 13.684 66.8411 13.6577 66.8411 13.1577ZM71.3147 12.4998C71.3147 12.2893 71.0779 11.9998 70.7621 11.8419 70.341 11.6051 70.1042 11.6314 69.7095 11.9998 68.9726 12.684 69.1042 12.8945 70.2621 12.8945 70.9989 12.8945 71.3147 12.7893 71.3147 12.4998Z" fill="#000000" fill-rule="nonzero" fill-opacity="1" transform="matrix(1.0216 0 0 -1 530.093 530.996)"/><path d="M18.2892 12.8682C18.3945 12.7367 18.8681 12.6314 19.3944 12.6314 20.5786 12.6314 20.4471 12.763 19.1313 12.9735 18.5524 13.0524 18.2103 13.0261 18.2892 12.8682Z" fill="#000000" fill-rule="nonzero" fill-opacity="1" transform="matrix(1.0216 0 0 -1 530.093 530.996)"/></g></g></g></g></svg>