<svg width="113" height="24" viewBox="0 0 113 24" fill="none" xmlns="http://www.w3.org/2000/svg">
<path d="M20.8179 0H5.08403V4.13996H0.94043V24H16.6743V19.86H20.8179V0ZM5.08403 4.96501V19.3002L1.7662 22.5856V4.96501H5.08403ZM15.8486 19.035H5.90981V4.96501H15.8486V19.035ZM15.8486 23.175H2.23807L5.70336 19.86H15.8633V23.175H15.8486Z" fill="#1A1A1A"/>
<path d="M29.1644 18.5341C29.2824 18.8729 29.4298 19.3297 29.4888 19.5948L29.0907 19.7127H29.2529V20.6704C29.2529 21.4365 29.0612 22.1731 27.852 22.5856C27.7488 22.3794 27.4686 22.0258 27.2769 21.8637C27.7046 21.7459 27.97 21.5838 28.1322 21.3923H27.159V19.8895H27.97V20.6556H28.3534V20.6409V19.7127H28.8105C28.7958 19.6538 28.7958 19.5948 28.7663 19.5212C27.5718 19.6832 27.3507 19.7422 27.2032 19.8011V19.7864C27.159 19.639 27.0557 19.2707 26.9673 19.0645C27.1147 19.0497 27.2769 18.9466 27.4686 18.814C27.5276 18.7698 27.6456 18.6814 27.7635 18.5635C27.4244 18.6077 27.3064 18.6225 27.2327 18.6667V18.6519C27.1885 18.4751 27.0557 18.1068 26.9673 17.9006C27.0705 17.8711 27.1885 17.8269 27.2769 17.7238C27.3507 17.6648 27.5866 17.4291 27.7635 17.1492H26.7166V22.5856H25.4189V13.9963H29.1939V17.1786H28.2502L28.6188 17.3702C28.4419 17.5912 28.2354 17.7974 28.029 17.989L28.3829 17.9742C28.5008 17.8564 28.6041 17.709 28.7073 17.5617L29.3266 18.0184C29.1202 18.2394 28.8842 18.4604 28.6483 18.6667L29.1644 18.5341ZM26.7166 14.895V15.1897H27.911V14.895H26.7166ZM26.7166 16.2799H27.911V15.9853H26.7166V16.2799ZM28.6041 18.9613L28.5451 18.7403C28.4419 18.8287 28.3386 18.9171 28.2354 18.9908L28.6041 18.9613ZM33.5145 21.0976C33.5145 21.7164 33.426 22.0847 33.0721 22.3057C32.7182 22.5267 32.2611 22.5562 31.6122 22.5562C31.5827 22.3057 31.4943 21.9374 31.391 21.628H30.8897V21.3775H30.5063V22.512H29.5773V19.7127H29.6658C29.6215 19.5359 29.5183 19.256 29.4593 19.0939C29.6068 19.0645 29.769 18.9761 29.9607 18.8287C30.0197 18.7845 30.1376 18.6961 30.2556 18.5783C29.9017 18.6225 29.769 18.6372 29.6953 18.6814C29.651 18.5046 29.5183 18.1363 29.4298 17.93C29.5331 17.9006 29.651 17.8564 29.7395 17.7532C29.8132 17.6943 30.0639 17.4586 30.2409 17.1639H29.651V13.9963H33.485V21.0976H33.5145ZM32.0399 21.2449C32.1578 21.2449 32.2021 21.2007 32.2021 21.0681V17.1639H30.698L31.1109 17.3849C30.9339 17.5912 30.7422 17.8122 30.5358 17.989L30.8749 17.9742C30.9929 17.8416 31.1256 17.6943 31.2288 17.547L31.8629 18.0037C31.6417 18.2394 31.4058 18.4604 31.1551 18.6814L31.6565 18.5341C31.8039 18.8729 31.9809 19.3297 32.0399 19.5948L31.391 19.8306C31.3763 19.7422 31.3468 19.6538 31.3173 19.5359C30.6685 19.6243 30.3146 19.6832 30.0787 19.7274H30.521V20.6704H30.9044V19.9042H31.7597V21.2744H32.0399V21.2449ZM31.0371 18.7698C30.9339 18.8582 30.8454 18.9319 30.7422 19.0203L31.1256 18.9761L31.0371 18.7698ZM30.9782 14.895V15.1897H32.2021V14.895H30.9782ZM30.9782 16.2799H32.2021V15.9853H30.9782V16.2799Z" fill="#1A1A1A"/>
<path d="M39.8999 16.8398C39.8557 18.3131 39.7082 19.477 39.4428 20.3904C40.0621 21.1418 40.9027 21.3481 41.8611 21.3481C42.1856 21.3481 43.3062 21.3481 43.7191 21.3333C43.5717 21.5985 43.4242 22.1142 43.38 22.4236H41.7874C40.6667 22.4236 39.723 22.2026 39.0152 21.4512C38.735 21.9521 38.3811 22.3499 37.9535 22.674C37.806 22.3794 37.5701 21.9816 37.3636 21.7606L37.3931 21.7458C36.5084 21.9668 35.6531 22.1878 34.9453 22.3646L34.7389 21.1418C35.0633 21.0976 35.4614 21.0239 35.889 20.9503V20.5525L35.1665 20.8177C35.1518 20.3904 35.0485 19.7274 34.9453 19.2265L35.6679 18.9761C35.7563 19.3591 35.8448 19.8453 35.9038 20.2431V18.7551H34.9601V17.6059H35.9038V17.1344H35.4172V16.7219C35.2845 16.8692 35.1518 17.0018 35.019 17.1197C34.9748 16.825 34.7684 16.0442 34.6504 15.7053C35.2697 15.2191 35.9333 14.4236 36.3167 13.5838L37.1277 14.07C37.0835 14.1731 37.0392 14.2615 36.9802 14.3646C37.3194 14.5856 37.6438 14.8361 37.8945 15.0718V14.0405H38.9415L39.2954 13.8932L39.9884 14.3499C39.7967 15.1897 39.487 16.0589 39.1921 16.7956L39.2954 16.7808L39.8999 16.8398ZM37.2899 16.0442C37.0392 15.7937 36.7296 15.5433 36.4346 15.3223C36.2872 15.5727 36.125 15.8085 35.948 16.0442H37.2899ZM37.8945 21.2597C38.0714 21.0387 38.2042 20.7882 38.3221 20.5083C38.0862 20.0516 37.8945 19.5064 37.7323 18.8287L38.6023 18.5193C38.6465 18.6961 38.6908 18.8582 38.735 19.0055C38.794 18.6667 38.8235 18.2983 38.8677 17.9005H38.2189C38.1304 17.9595 38.0714 18.0479 38.0714 18.0921C37.983 17.8711 37.688 17.4438 37.5406 17.2523C37.7175 17.1934 38.0272 16.8692 38.1599 16.5598C38.2484 16.3683 38.4253 15.8674 38.5875 15.2781H38.0567L38.0862 15.3075L37.6438 16.442L37.5848 16.3683V17.1344H36.7738V17.6059H37.7618V18.7551H36.7738V20.1989C36.8475 19.7864 36.936 19.2707 36.9655 18.8729L37.7618 19.1086C37.6143 19.6538 37.4816 20.2431 37.3636 20.6114L36.7738 20.3904V20.744L37.8355 20.5377L37.8945 21.2597ZM40.8289 15.2044H40.0621V14.291H40.8289V13.7311H41.8464V14.291H43.1145V15.5285H43.6159V16.5009H43.1145V17.7385H41.8464V18.0626H43.203V19.0644H41.8464V19.4033H43.3505V20.4051H41.8464V21.0976H40.8289V20.4051H39.7967V19.4033H40.8289V19.0644H40.0179V18.0626H40.8289V17.7385H40.0621V16.8398H40.8289V16.5009H39.664V15.5285H40.8289V15.2044ZM41.8464 15.2044V15.5285H42.2003V15.2044H41.8464ZM42.1856 16.5009H41.8316V16.8545H42.1856V16.5009Z" fill="#1A1A1A"/>
<path d="M48.0834 16.2652H44.4854V15.2044H45.8862C45.7535 14.8508 45.5618 14.4383 45.3996 14.1142L46.3581 13.6133C46.594 14.0258 46.8594 14.5414 46.9922 14.9098L46.476 15.2044H48.0834V16.2652ZM44.8393 17.5764V16.5598H47.6852V17.5764H44.8393ZM47.7 18.8729H44.854V17.8563H47.7V18.8729ZM47.7147 22.1142H45.9157V22.4972H44.854V19.1823H47.7V22.1142H47.7147ZM45.9157 20.2578V21.0239H46.6383V20.2578H45.9157ZM53.3624 19.477H51.3569V22.6004H50.0003V19.477H48.0539V18.1805H50.0003V15.3517H48.3488V14.0847H53.2002V15.3517H51.3569V18.1805H53.3624V19.477ZM49.4547 15.6759C49.6464 16.3389 49.7939 17.2081 49.8381 17.7827L48.6879 18.0331C48.6732 17.4586 48.5405 16.5746 48.3783 15.8969L49.4547 15.6759ZM51.4749 17.7532C51.6666 17.1639 51.8583 16.2505 51.932 15.5875L53.2297 15.8379C52.9937 16.6335 52.7431 17.4586 52.5366 18.0037L51.4749 17.7532Z" fill="#1A1A1A"/>
<path d="M61.0154 14.291C60.9565 14.3941 60.8975 14.4972 60.8238 14.6151C61.3546 15.2928 62.2246 15.8527 63.1978 16.1621C62.9029 16.442 62.4753 17.0166 62.2689 17.3849C62.0182 17.2818 61.7822 17.1639 61.5463 17.0018V17.4291H58.4644V17.0018C58.2137 17.1786 57.963 17.326 57.7124 17.4586C57.5502 17.105 57.2552 16.5893 56.9751 16.2505H54.0996V15.1897H55.3972C55.2498 14.8361 55.0434 14.4236 54.8664 14.0994L55.9281 13.5985C56.1788 14.0111 56.459 14.5267 56.6064 14.895L56.0461 15.1897H57.3142V16.0147C58.3907 15.4843 59.4229 14.5562 59.9537 13.5691L61.0154 14.291ZM57.093 22.1142H55.53V22.4972H54.4388V19.1823H57.093V22.1142ZM57.0488 17.5764H54.4978V16.5599H57.0488V17.5764ZM54.4978 17.8564H57.0488V18.8729H54.4978V17.8564ZM55.53 20.2578V21.0239H56.0018V20.2578H55.53ZM62.4016 21.3333C62.4016 21.8195 62.3573 22.1289 62.1066 22.3204C61.856 22.512 61.5611 22.5267 61.2071 22.5267C61.1924 22.2762 61.1187 21.9669 61.0302 21.6722V22.3204H60.1307V20.7588H59.88V22.3204H58.9805V20.7588H58.7446V22.6004H57.6534V17.7827H62.4016V21.3333ZM58.9953 19.639V18.8877H58.7446V19.639H58.9953ZM60.6468 16.2947C60.4404 16.0884 60.2339 15.8674 60.057 15.6169C59.8505 15.8527 59.6293 16.0737 59.3934 16.2947H60.6468ZM60.1454 19.639V18.8877H59.8948V19.639H60.1454ZM61.3104 18.8877H61.0302V19.639H61.3104V18.8877ZM61.0449 21.407C61.1334 21.407 61.2071 21.407 61.2366 21.407C61.2956 21.407 61.3104 21.3775 61.3104 21.3039V20.7588H61.0302V21.407H61.0449Z" fill="#1A1A1A"/>
<path d="M65.0856 20.14C65.0414 20.9945 64.9087 21.8785 64.7317 22.453C64.5105 22.3352 64.0387 22.1731 63.8027 22.1142C63.9944 21.5838 64.0829 20.744 64.1271 19.9779L65.0856 20.14ZM72.6061 21.3333C72.6061 21.8932 72.5176 22.2026 72.1932 22.3941C71.8688 22.5856 71.4264 22.6151 70.8218 22.6151C70.7776 22.291 70.6449 21.7753 70.4974 21.4807C70.7776 21.4954 71.1315 21.4954 71.2495 21.4954C71.3674 21.4807 71.4117 21.4512 71.4117 21.3186V15.2044H68.6689V22.6151H67.4597V21.3628L66.634 21.6869C66.5602 21.2007 66.3538 20.4494 66.1768 19.8895L67.0026 19.5948C67.1796 20.081 67.3565 20.6556 67.4597 21.0976V19.256L66.634 19.6096C66.6192 19.5064 66.5897 19.3886 66.5602 19.256C64.8497 19.5506 64.4958 19.639 64.2894 19.7569C64.2451 19.5359 64.0534 18.9761 63.9355 18.6667C64.1861 18.6077 64.3631 18.3867 64.658 18.0184C64.7612 17.9006 64.9382 17.6501 65.1594 17.326C64.5548 17.3996 64.3631 17.4586 64.2304 17.5175C64.1714 17.2965 63.9944 16.7514 63.8617 16.4567C64.0387 16.3978 64.2009 16.2357 64.3778 15.9558C64.5548 15.6906 65.1004 14.6593 65.3806 13.6869L66.4128 14.1436C66.1179 14.8803 65.705 15.6611 65.2773 16.3094L65.764 16.2799C65.9999 15.8527 66.2211 15.3959 66.4128 14.9392L67.386 15.5875C66.8994 16.5746 66.2506 17.5764 65.5575 18.4309L66.2506 18.3425C66.1916 18.1657 66.1326 17.9889 66.0736 17.8269L66.9289 17.5028C67.0911 17.93 67.2828 18.4457 67.4155 18.8729V14.0405H72.6061V21.3333ZM66.0294 19.9042C66.1473 20.523 66.2358 21.3186 66.2801 21.849L65.3511 22.0994C65.3363 21.5543 65.2478 20.744 65.1594 20.1252L66.0294 19.9042ZM70.6301 20.0368C70.7776 20.0368 71.0283 20.0221 71.161 19.9779C71.1757 20.2578 71.2052 20.6262 71.2347 20.8766C71.0873 20.9355 70.8513 20.9355 70.6596 20.9355H70.114C69.2145 20.9355 69.0228 20.582 69.0228 19.7422V19.3886H68.7721V18.3867H69.5684C69.5242 18.2247 69.4505 18.0479 69.3915 17.9006L70.0108 17.709H68.7721V16.7072H69.126C69.0818 16.3831 68.9786 15.9411 68.8459 15.6022L69.5979 15.3517C69.7601 15.7201 69.8928 16.221 69.9223 16.5451L69.4652 16.7072H70.0845C70.173 16.3094 70.291 15.7643 70.3352 15.3812L71.2347 15.6022C71.1168 15.9853 70.9988 16.3831 70.8956 16.7219H71.2052V17.7238H70.3794C70.4532 17.9153 70.5564 18.1363 70.5859 18.2689L70.2025 18.4015H71.2052V19.4033H70.0993V19.7716C70.0993 19.9632 70.114 20.0516 70.2467 20.0516H70.6301V20.0368Z" fill="#1A1A1A"/>
<path d="M76.3215 22.011C76.1446 21.7311 75.8939 21.4217 75.599 21.0829C75.2746 21.5985 74.847 22.07 74.3309 22.512C74.1539 22.2615 73.741 21.849 73.4756 21.6722C74.0359 21.2155 74.4636 20.6998 74.788 20.1547C74.3898 19.7274 73.9917 19.3002 73.6525 18.9171C73.8 18.3425 73.9327 17.6206 74.0654 16.8398L73.6525 16.8692L73.5346 15.6464L74.2276 15.6169C74.3014 14.9687 74.3603 14.3352 74.3898 13.7459L75.5548 13.7901C75.5105 14.3499 75.4663 14.954 75.3778 15.558L75.7022 15.5433V14.9982H76.8229V15.4843L77.1473 15.4696V16.6335L76.8082 16.663C76.7787 17.6354 76.646 18.7993 76.1888 19.919C76.5722 20.302 76.8966 20.6703 77.1178 20.9797L76.3215 22.011ZM75.3041 19.0055C75.5548 18.2099 75.658 17.4144 75.6875 16.7366L75.2009 16.7661C75.1124 17.4144 74.9944 18.0184 74.8912 18.5783L75.3041 19.0055ZM79.02 20.4199C78.7251 21.1565 78.2238 21.9816 77.7224 22.453C77.5307 22.1731 77.1178 21.7459 76.8377 21.5249C77.3095 21.186 77.7961 20.6114 78.0616 20.081L79.02 20.4199ZM80.4062 19.9779V22.6151H79.079V19.9779H76.9999V18.8435H79.079V18.4162H77.7224V15.7348H77.1621V14.5856H77.7224V13.6575H78.9611V14.5856H80.3324V13.6575H81.6301V14.5856H82.2936V15.7201H81.6301V18.4162H80.4062V18.8435H82.3526V19.9779H80.4062ZM78.9611 15.7348V16.0295H80.3324V15.7348H78.9611ZM78.9611 17.326H80.3324V17.0166H78.9611V17.326ZM81.4826 20.0958C81.8513 20.6556 82.3379 21.4217 82.5738 21.9079L81.5269 22.3646C81.3352 21.8784 80.878 21.0976 80.5094 20.4936L81.4826 20.0958Z" fill="#1A1A1A"/>
<path d="M86.9093 18.2099V21.4954C86.9093 21.9521 86.8503 22.232 86.5554 22.3941C86.2753 22.5562 85.9066 22.5709 85.4347 22.5709C85.3905 22.2762 85.2578 21.849 85.1251 21.5691C85.3463 21.5838 85.5969 21.5838 85.6854 21.5838C85.7739 21.5838 85.8034 21.5543 85.8034 21.4659V20.8324C85.5527 20.9945 85.3168 21.1565 85.0808 21.3039L84.8596 20.7882C84.7859 21.4512 84.6385 22.1436 84.2993 22.6298C84.1076 22.4383 83.6062 22.1142 83.3408 21.9816C83.7832 21.2891 83.8127 20.3315 83.8127 19.5801V18.1805H83.3556V16.6335H83.7095V13.9374H86.9536V16.6777H87.337V17.709H92.2031V18.6667H87.3222V18.2394H86.9093V18.2099ZM86.3048 17.5617H84.2993V17.8122H86.3048V17.5617ZM84.7417 16.663H84.9629V15.1308H85.8181V14.8803H84.7269V16.663H84.7417ZM84.9039 19.6243C84.9039 19.86 84.8891 20.1105 84.8891 20.3757C85.1546 20.2726 85.4642 20.14 85.7886 19.9926V19.6538L85.4347 20.0516C85.3168 19.9337 85.1103 19.7422 84.9039 19.5654V19.6243ZM85.7886 18.6814H84.9039V19.1087L85.1841 18.814C85.3758 18.9466 85.6117 19.0939 85.7886 19.2413V18.6814ZM85.8329 16.663V15.8674H85.6412V16.663H85.8329ZM92.2621 21.5249V22.4972H87.2042V21.5249H88.1922C88.1332 21.3333 88.0448 21.1123 87.9858 20.9503L88.5166 20.7882H87.6171V18.8729H91.8492V20.7882H90.8465L91.5395 20.9797C91.4068 21.1713 91.2741 21.3628 91.1561 21.5249H92.2621ZM92.0409 17.4438H87.4107V14.3204H88.5019V13.6722H89.5489V14.3204H89.7995V13.6722H90.8612V14.3204H92.0557V17.4438H92.0409ZM88.3987 15.4696H88.7526V15.175H88.3987V15.4696ZM88.3987 16.5746H88.7526V16.2799H88.3987V16.5746ZM88.7821 19.9926H90.5811V19.6685H88.7821V19.9926ZM89.0622 20.7882C89.1802 21.0387 89.2834 21.3039 89.3424 21.5249H90.006C90.1092 21.2891 90.2124 21.0092 90.2861 20.7882H89.0622ZM89.8438 15.4696V15.175H89.5489V15.4696H89.8438ZM89.5489 16.2799V16.5746H89.8438V16.2799H89.5489ZM91.0087 15.1897H90.6548V15.4843H91.0087V15.1897ZM91.0087 16.2799H90.6548V16.5746H91.0087V16.2799Z" fill="#1A1A1A"/>
<path d="M94.2087 16.7366C94.1055 16.825 93.9875 16.9282 93.8843 17.0166C93.6631 16.7219 93.2354 16.2947 92.9258 16.1031C93.9875 15.3812 94.7543 14.453 95.1967 13.6427L96.5828 13.9227C96.4648 14.1289 96.3321 14.3352 96.1994 14.5267H97.2611C97.2021 14.3352 97.1136 14.1289 97.0399 13.9521L98.3375 13.5985C98.485 13.8785 98.6325 14.232 98.7504 14.5267H101.36V15.558H98.5735V15.8085H100.918V16.6777H98.5735V16.9282H100.918V17.7974H98.5735V18.0626H101.552V19.0939H95.5653V19.3149H94.2087V16.7366ZM96.6713 21.1123C96.0077 21.6574 94.8722 22.1731 93.8695 22.3794C93.6778 22.0847 93.3092 21.5985 93.029 21.3481C94.0022 21.2302 95.0934 20.965 95.6685 20.6556L96.6713 21.1123ZM99.414 20.6409C100.196 20.9208 101.257 21.3186 101.847 21.5985L100.962 22.4825C100.387 22.1878 99.1781 21.6722 98.3523 21.3481L99.0748 20.6556H98.1458V22.6151H96.7745V20.6556H93.1912V19.5801H96.7745V19.1528H98.1458V19.5654H101.773V20.6409H99.414ZM97.2611 15.558H95.5653V15.8085H97.2611V15.558ZM97.2611 16.6777H95.5653V16.9282H97.2611V16.6777ZM97.2611 17.7827H95.5653V18.0479H97.2611V17.7827Z" fill="#1A1A1A"/>
<path d="M111.299 13.9079V22.6151H110.001V22.1731H104.383V22.6151H103.145V13.9079H111.299ZM110.001 21.1565V14.9245H104.383V21.1565H110.001ZM109.338 19.2265H109.854V19.9337H108.718V20.361C108.718 20.7735 108.63 20.9061 108.335 20.9945C108.055 21.0829 107.672 21.0829 107.155 21.0829C107.111 20.8471 106.993 20.5967 106.905 20.4199C107.096 20.4346 107.391 20.4346 107.48 20.4346C107.568 20.4346 107.598 20.4052 107.598 20.3168V19.9337H106.256C106.448 20.1547 106.639 20.4199 106.743 20.6114L105.843 21.0387C105.755 20.8177 105.519 20.4494 105.312 20.1989L105.902 19.919H104.501V19.2118H107.613V19.0203C106.551 19.0645 105.533 19.0792 104.708 19.0939L104.663 18.4015C105.209 18.4015 105.887 18.4162 106.625 18.4162V18.1952H104.826V16.2505H106.625V16.0589H104.634V15.337H106.625V15.0571H107.731V15.337H109.736V16.0589H107.731V16.2652H109.544V18.2099H109.22C109.485 18.4162 109.721 18.6667 109.869 18.8435L109.338 19.2265ZM105.843 16.9871H106.61V16.7808H105.843V16.9871ZM106.61 17.6943V17.4733H105.843V17.6943H106.61ZM107.716 16.7808V16.9871H108.453V16.7808H107.716ZM107.716 17.4733V17.6943H108.453V17.4733H107.716ZM107.716 18.2099V18.4309L108.232 18.4162L108.217 18.4015L108.512 18.2099H107.716ZM108.704 19.2265H109.058C108.999 19.1529 108.925 19.0792 108.851 19.0055L108.704 19.0203V19.2265Z" fill="#1A1A1A"/>
<path d="M28.0436 3.1418V9.8011H26.5985V3.1418H24.6963V1.77164H29.9458V3.15654H28.0436V3.1418Z" fill="#1A1A1A"/>
<path d="M35.4463 9.81584L32.3792 4.6593L32.3055 4.32044V9.83057H30.8604V1.77164H32.1432L35.2104 6.92818L35.2841 7.26703V1.77164H36.7292V9.81584H35.4463Z" fill="#1A1A1A"/>
<path d="M38.2178 9.81584V1.77164H39.6629V8.43094H42.6268V9.81584H38.2178Z" fill="#1A1A1A"/>
<path d="M49.1891 9.81584L47.4786 3.89318L47.4344 3.55433V9.81584H45.9893V1.77164H48.1127L49.8822 7.90055L49.9117 8.19521L49.9412 7.90055L51.7107 1.77164H53.8341V9.81584H52.389V3.55433L52.3448 3.89318L50.6342 9.81584H49.1891Z" fill="#1A1A1A"/>
<path d="M55.3975 9.81584V1.77164H60.5438V3.15654H56.8573V5.11602H59.8212V6.50092H56.8573V8.4604H60.5438V9.8453H55.3975V9.81584Z" fill="#1A1A1A"/>
<path d="M61.6934 1.77164H64.613C65.9402 1.77164 66.9577 2.77348 66.9577 4.09945V7.50276C66.9577 8.82873 65.9402 9.83057 64.613 9.83057H61.6934V1.77164ZM64.5983 8.43094C65.1292 8.43094 65.5126 8.01841 65.5126 7.48803V4.08471C65.5126 3.55433 65.1144 3.1418 64.5983 3.1418H63.1532V8.43094H64.5983Z" fill="#1A1A1A"/>
<path d="M68.4619 9.81584V1.77164H69.907V9.81584H68.4619Z" fill="#1A1A1A"/>
<path d="M70.7188 9.81584L72.9601 1.77164H74.9066L77.1627 9.81584H75.5996L75.1867 8.22468H72.7094L72.2966 9.81584H70.7188ZM73.0044 6.97237H74.8623L73.9628 3.46593L73.9333 3.17127L73.9039 3.46593L73.0044 6.97237Z" fill="#1A1A1A"/>
<path d="M82.8982 5.35174H84.0779H85.523V9.81583H84.9626L84.5497 9.18232C84.1664 9.65377 83.6208 9.9337 82.9572 9.9337H82.618C81.2909 9.9337 80.2734 8.93185 80.2734 7.60589V3.96685C80.2734 2.64088 81.2909 1.63904 82.618 1.63904H83.1931C84.5203 1.63904 85.5377 2.64088 85.5377 3.96685V4.37937L84.0926 4.51197V3.96685C84.0926 3.43646 83.6945 3.02394 83.1784 3.02394H82.6328C82.1019 3.02394 81.7185 3.43646 81.7185 3.96685V7.59116C81.7185 8.12154 82.1167 8.53407 82.6328 8.53407H83.1636C83.6945 8.53407 84.0779 8.12154 84.0779 7.59116V6.72191H82.8982V5.35174Z" fill="#1A1A1A"/>
<path d="M92.2472 4.51197C92.2472 5.52854 91.6426 6.33886 90.7726 6.67771L92.4242 9.81584H90.8316L89.298 6.83978H88.3543V9.81584H86.9092V1.77164H89.9026C91.2297 1.77164 92.2472 2.77348 92.2472 4.09945V4.51197ZM90.8021 4.08471C90.8021 3.55433 90.404 3.1418 89.8879 3.1418H88.369V5.45488H89.8879C90.4187 5.45488 90.8021 5.04236 90.8021 4.51197V4.08471Z" fill="#1A1A1A"/>
<path d="M98.735 7.60589C98.735 8.93185 97.7175 9.9337 96.3904 9.9337H95.8153C94.4882 9.9337 93.4707 8.93185 93.4707 7.60589V3.96685C93.4707 2.64088 94.4882 1.63904 95.8153 1.63904H96.3904C97.7175 1.63904 98.735 2.64088 98.735 3.96685V7.60589ZM94.9158 7.60589C94.9158 8.13627 95.3139 8.5488 95.83 8.5488H96.3609C96.8917 8.5488 97.2751 8.13627 97.2751 7.60589V3.96685C97.2751 3.43646 96.877 3.02394 96.3609 3.02394H95.83C95.2992 3.02394 94.9158 3.43646 94.9158 3.96685V7.60589Z" fill="#1A1A1A"/>
<path d="M105.386 1.77164V7.60589C105.386 8.93186 104.369 9.9337 103.042 9.9337H102.467C101.14 9.9337 100.122 8.93186 100.122 7.60589V1.77164H101.567V7.60589C101.567 8.13628 101.965 8.5488 102.481 8.5488H103.012C103.543 8.5488 103.927 8.13628 103.927 7.60589V1.77164H105.386Z" fill="#1A1A1A"/>
<path d="M112.214 4.86556C112.214 6.19153 111.197 7.19337 109.869 7.19337H108.321V9.83057H106.876V1.77164H109.869C111.197 1.77164 112.214 2.77348 112.214 4.09945V4.86556ZM110.769 4.08471C110.769 3.55433 110.371 3.1418 109.855 3.1418H108.336V5.79374H109.855C110.385 5.79374 110.769 5.38121 110.769 4.85083V4.08471Z" fill="#1A1A1A"/>
</svg>
